<?xml version="1.0" encoding="utf-8"?>
<!-- Generator: Adobe Illustrator 24.0.2, SVG Export Plug-In . SVG Version: 6.00 Build 0)  -->
<svg version="1.1" id="tab" xmlns="http://www.w3.org/2000/svg" xmlns:xlink="http://www.w3.org/1999/xlink" x="0px" y="0px"
	 viewBox="0 0 40 40" style="enable-background:new 0 0 40 40;" xml:space="preserve">
<style type="text/css">
	.st0{fill:none;stroke:#0ff;stroke-width:0.5;stroke-miterlimit:10;}
	.st1{fill:none;stroke:#0ff;stroke-width:0.2;stroke-linecap:round;stroke-miterlimit:10;}
	.st2{fill:none;stroke:#0ff;stroke-width:0.5;stroke-linecap:round;stroke-miterlimit:10;}
	.st3{fill:none;stroke:#0ff;stroke-width:0.4;stroke-linecap:round;stroke-miterlimit:10;}
</style>
<g id="pc_1_">
	<path class="st0" d="M33.6,8.3H8.3c-0.3,0-0.6,0.3-0.6,0.6v11.5c0.8-0.5,1.8-0.7,3-0.7c5.1,0,6.9,4.9,5.5,8.5h17.5
		c0.3,0,0.6-0.3,0.6-0.6V8.9C34.2,8.6,33.9,8.3,33.6,8.3z"/>
	<line class="st0" x1="7.7" y1="11.3" x2="34.2" y2="11.4"/>
	<line class="st1" x1="12.5" y1="8.3" x2="12.5" y2="11.3"/>
</g>
<g id="OK">
	<ellipse class="st0" cx="21.4" cy="18.4" rx="3.4" ry="3.2"/>
	<line class="st2" x1="20.3" y1="17.6" x2="21.4" y2="19.5"/>
	<line class="st2" x1="22.8" y1="16.9" x2="21.4" y2="19.5"/>
</g>
<g id="mano">
	<path class="st3" d="M10,31.6c1-0.9,1.9-1.7,2.9-2.6c0.1-0.1,0.2-0.2,0.2-0.4c0-0.1,0-0.2,0-0.3c-0.1-0.1-0.2-0.2-0.3-0.3
		c-0.3-0.1-0.7,0.3-0.7,0.2c0,0,0.3-0.2,0.4-0.6c0,0,0-0.3-0.2-0.5c-0.1-0.1-0.3-0.1-0.4-0.1c-0.4,0-0.7,0.3-0.7,0.3
		c0,0,0.4-0.2,0.5-0.5c0,0,0-0.2,0-0.3c0-0.1-0.1-0.2-0.1-0.2c0,0-0.1-0.1-0.3-0.1c-0.4-0.1-0.6,0.1-0.7,0.1c-0.1-0.1,1.6-1.5,2-2.1
		c0-0.1,0.1-0.2,0.2-0.4c0-0.1,0-0.3-0.1-0.5c-0.1-0.1-0.4-0.1-0.4-0.1c-0.6,0-1.4,0.7-1.9,1.2c-1,0.9-2.1,2-2.3,2.3c0,0,0,0,0,0
		c-0.2,0.1-0.6-0.8-1.3-1.1c-0.6-0.3-1.5-0.2-1.7,0.1C5,26,5.7,26.2,6.1,27.2c0.3,0.8,0,1.1,0.3,1.9c0.1,0.3,0.4,0.6,0.9,1.1
		c1.3,1.4,1.8,1.4,2,1.5C9.7,31.7,9.9,31.7,10,31.6z"/>
	<line class="st3" x1="5.7" y1="23.2" x2="6.6" y2="23.9"/>
	<line class="st3" x1="7.2" y1="22.3" x2="7.2" y2="23.5"/>
	<line class="st3" x1="8.8" y1="23.2" x2="8" y2="24"/>
</g>
</svg>
