<svg id="tab" xmlns="http://www.w3.org/2000/svg" viewBox="0 0 38.82 34.49"><defs><style>.cls-1,.cls-2,.cls-3,.cls-4,.cls-5,.cls-6{fill:none;stroke:#0ff;stroke-miterlimit:10;}.cls-1,.cls-4{stroke-width:0.5px;}.cls-2,.cls-3{stroke-width:0.2px;}.cls-3,.cls-4,.cls-5,.cls-6{stroke-linecap:round;}.cls-5{stroke-width:0.3px;}.cls-6{stroke-width:0.4px;}</style></defs><title>easy-detailed</title><g id="pc"><rect class="cls-1" x="18.31" y="20.08" width="20.26" height="14.16" rx="0.5"/><line class="cls-1" x1="18.31" y1="22.2" x2="38.57" y2="22.29"/><line class="cls-2" x1="22.52" y1="20.08" x2="22.52" y2="22.22"/></g><g id="pc-2" data-name="pc"><rect class="cls-1" x="0.25" y="3.45" width="20.26" height="14.16" rx="0.5"/><line class="cls-1" x1="0.25" y1="5.57" x2="20.51" y2="5.66"/><line class="cls-3" x1="3.91" y1="3.45" x2="3.91" y2="5.62"/><line class="cls-3" x1="10.1" y1="4.51" x2="18.77" y2="4.51"/></g><g id="dettagli_pc_code" data-name="dettagli pc code"><line class="cls-3" x1="24.43" y1="28.58" x2="27.07" y2="27.1"/><line class="cls-3" x1="26.95" y1="30.03" x2="24.43" y2="28.58"/><line class="cls-3" x1="33.09" y1="28.56" x2="30.44" y2="30.02"/><line class="cls-3" x1="30.59" y1="27.09" x2="33.09" y2="28.56"/><line class="cls-3" x1="29.38" y1="26.95" x2="28.44" y2="30.06"/><line class="cls-3" x1="27" y1="21.07" x2="36.92" y2="21.11"/><line class="cls-3" x1="20.2" y1="24.96" x2="25.4" y2="24.96"/><line class="cls-3" x1="31.84" y1="32" x2="36.74" y2="32"/><line class="cls-3" x1="34.29" y1="30.19" x2="36.74" y2="30.24"/><line class="cls-3" x1="20.2" y1="26.68" x2="22.8" y2="26.68"/></g><g id="OK"><ellipse class="cls-2" cx="10.38" cy="11.15" rx="3.28" ry="3.24"/><line class="cls-3" x1="9.33" y1="10.34" x2="10.38" y2="12.3"/><line class="cls-3" x1="11.75" y1="9.65" x2="10.38" y2="12.27"/></g><g id="OK-2" data-name="OK"><ellipse class="cls-2" cx="31.8" cy="5.84" rx="1.81" ry="1.79"/><line class="cls-3" x1="31.22" y1="5.39" x2="31.8" y2="6.48"/><line class="cls-3" x1="32.56" y1="5.01" x2="31.8" y2="6.46"/></g><g id="mobile"><rect class="cls-4" x="28" y="0.25" width="7.61" height="13.06" rx="0.5"/><line class="cls-4" x1="28" y1="1.87" x2="35.62" y2="1.9"/><line class="cls-4" x1="28" y1="11.57" x2="35.62" y2="11.57"/><ellipse class="cls-5" cx="31.78" cy="12.54" rx="0.45" ry="0.45"/></g><g id="mano"><path class="cls-6" d="M9.54,33l2.85-2.57a.86.86,0,0,0,.24-.4.51.51,0,0,0,0-.32.48.48,0,0,0-.33-.25c-.34-.07-.66.26-.69.22s.3-.24.34-.58a.53.53,0,0,0-.55-.64,1.49,1.49,0,0,0-.72.28s.37-.2.45-.53a.54.54,0,0,0,0-.3.51.51,0,0,0-.14-.21.62.62,0,0,0-.28-.12,1.72,1.72,0,0,0-.64.1c-.06-.09,1.59-1.5,2-2.07a.87.87,0,0,0,.15-.4.56.56,0,0,0-.12-.45.61.61,0,0,0-.44-.14c-.56,0-1.32.73-1.82,1.2a29.58,29.58,0,0,0-2.22,2.25,0,0,0,0,1,0,0C7.4,28.17,7,27.33,6.32,27s-1.5-.19-1.61.11.65.53,1,1.44,0,1.11.32,1.93A5.13,5.13,0,0,0,7,31.61c1.23,1.35,1.75,1.44,2,1.46A1.66,1.66,0,0,0,9.54,33Z" transform="translate(-0.59 -2.26)"/><line class="cls-6" x1="4.76" y1="22.32" x2="5.59" y2="23.09"/><line class="cls-6" x1="6.21" y1="21.48" x2="6.23" y2="22.62"/><line class="cls-6" x1="7.76" y1="22.3" x2="6.92" y2="23.13"/></g></svg>