<?xml version="1.0" encoding="utf-8"?>
<!-- Generator: Adobe Illustrator 24.0.2, SVG Export Plug-In . SVG Version: 6.00 Build 0)  -->
<svg version="1.1" id="tab" xmlns="http://www.w3.org/2000/svg" xmlns:xlink="http://www.w3.org/1999/xlink" x="0px" y="0px"
	 viewBox="0 0 33 33" style="enable-background:new 0 0 33 33;" xml:space="preserve">
<style type="text/css">
	.st0{fill:none;stroke:#0ff;stroke-width:0.5;stroke-miterlimit:10;}
	.st1{fill:none;stroke:#0ff;stroke-width:0.2;stroke-linecap:round;stroke-miterlimit:10;}
	.st2{fill:none;stroke:#0ff;stroke-width:0.5;stroke-linecap:round;stroke-miterlimit:10;}
	.st3{fill:none;stroke:#0ff;stroke-width:0.4;stroke-linecap:round;stroke-miterlimit:10;}
</style>
<g id="pc_1_">
	<path class="st0" d="M30.1,4.8H4.8c-0.3,0-0.6,0.3-0.6,0.6v11.5c0.8-0.5,1.8-0.7,3-0.7c5.1,0,6.9,4.9,5.5,8.5h17.5
		c0.3,0,0.6-0.3,0.6-0.6V5.4C30.7,5.1,30.4,4.8,30.1,4.8z"/>
	<line class="st0" x1="4.2" y1="7.8" x2="30.7" y2="7.9"/>
	<line class="st1" x1="9" y1="4.8" x2="9" y2="7.8"/>
</g>
<g id="OK">
	<ellipse class="st0" cx="17.9" cy="14.9" rx="3.4" ry="3.2"/>
	<line class="st2" x1="16.8" y1="14.1" x2="17.9" y2="16"/>
	<line class="st2" x1="19.3" y1="13.4" x2="17.9" y2="16"/>
</g>
<g id="mano">
	<path class="st3" d="M6.5,28.1c1-0.9,1.9-1.7,2.9-2.6c0.1-0.1,0.2-0.2,0.2-0.4c0-0.1,0-0.2,0-0.3c-0.1-0.1-0.2-0.2-0.3-0.3
		c-0.3-0.1-0.7,0.3-0.7,0.2c0,0,0.3-0.2,0.4-0.6c0,0,0-0.3-0.2-0.5c-0.1-0.1-0.3-0.1-0.4-0.1c-0.4,0-0.7,0.3-0.7,0.3
		s0.4-0.2,0.5-0.5c0,0,0-0.2,0-0.3c0-0.1-0.1-0.2-0.1-0.2S8,22.7,7.8,22.7c-0.4-0.1-0.6,0.1-0.7,0.1c-0.1-0.1,1.6-1.5,2-2.1
		c0-0.1,0.1-0.2,0.2-0.4c0-0.1,0-0.3-0.1-0.5c-0.1-0.1-0.4-0.1-0.4-0.1c-0.6,0-1.4,0.7-1.9,1.2c-1,0.9-2.1,2-2.3,2.3l0,0
		c-0.2,0.1-0.6-0.8-1.3-1.1c-0.6-0.3-1.5-0.2-1.7,0.1c-0.1,0.3,0.6,0.5,1,1.5c0.3,0.8,0,1.1,0.3,1.9c0.1,0.3,0.4,0.6,0.9,1.1
		c1.3,1.4,1.8,1.4,2,1.5C6.2,28.2,6.4,28.2,6.5,28.1z"/>
	<line class="st3" x1="2.2" y1="19.7" x2="3.1" y2="20.4"/>
	<line class="st3" x1="3.7" y1="18.8" x2="3.7" y2="20"/>
	<line class="st3" x1="5.3" y1="19.7" x2="4.5" y2="20.5"/>
</g>
</svg>
