<?xml version="1.0" encoding="utf-8"?>
<?xml-stylesheet type="text/css" href="../css/styles.css"?>
<svg version="1.1" id="tab" xmlns="http://www.w3.org/2000/svg" xmlns:xlink="http://www.w3.org/1999/xlink" x="0px" y="0px"
	 viewBox="0 0 40 40" style="enable-background:new 0 0 40 40;" xml:space="preserve">
<!-- <style type="text/css">
	.st0{fill:none;stroke:#000000;stroke-width:0.5;stroke-miterlimit:10;}
	.st1{fill:none;stroke:#000000;stroke-width:0.2;stroke-miterlimit:10;}
	.st2{fill:none;stroke:#000000;stroke-width:0.2;stroke-linecap:round;stroke-miterlimit:10;}
	.st3{fill:none;stroke:#000000;stroke-width:0.5;stroke-linecap:round;stroke-miterlimit:10;}
	.st4{fill:none;stroke:#000000;stroke-width:0.3;stroke-linecap:round;stroke-miterlimit:10;}
	.st5{fill:none;stroke:#000000;stroke-width:0.4;stroke-linecap:round;stroke-miterlimit:10;}
</style> -->
<g id="pc">
	<path class="st0" d="M38.7,36.5H19.4c-0.3,0-0.5-0.2-0.5-0.5V22.8c0-0.3,0.2-0.5,0.5-0.5h19.3c0.3,0,0.5,0.2,0.5,0.5V36
		C39.2,36.3,38.9,36.5,38.7,36.5z"/>
	<line class="st0" x1="18.9" y1="24.5" x2="39.2" y2="24.5"/>
	<line class="st1" x1="23.1" y1="22.3" x2="23.1" y2="24.5"/>
</g>
<g id="pc_1_" class="hide-svg">
	<path class="st0" d="M20.6,19.9H1.3c-0.3,0-0.5-0.2-0.5-0.5V6.2c0-0.3,0.2-0.5,0.5-0.5h19.3c0.3,0,0.5,0.2,0.5,0.5v13.2
		C21.1,19.6,20.9,19.9,20.6,19.9z"/>
	<line class="st0" x1="0.8" y1="7.8" x2="21.1" y2="7.9"/>
	<line class="st02" x1="4.5" y1="5.7" x2="4.5" y2="7.9"/>
	<line class="st02" x1="10.7" y1="6.8" x2="19.4" y2="6.8"/>
</g>
<g id="dettagli_pc_code">
	<line class="st02" x1="25" y1="30.8" x2="27.7" y2="29.4"/>
	<line class="st02" x1="27.5" y1="32.3" x2="25" y2="30.8"/>
	<line class="st02" x1="33.7" y1="30.8" x2="31" y2="32.3"/>
	<line class="st02" x1="31.2" y1="29.3" x2="33.7" y2="30.8"/>
	<line class="st02" x1="30" y1="29.2" x2="29" y2="32.3"/>
	<line class="st02" x1="27.6" y1="23.3" x2="37.5" y2="23.4"/>
	<line class="st02 easy-line-top-l" x1="20.8" y1="27.2" x2="26" y2="27.2"/>
	<line class="st02 easy-line-bottom-l" x1="32.4" y1="34.3" x2="37.3" y2="34.3"/>
	<line class="st02 easy-line-top-s" x1="34.9" y1="32.5" x2="37.3" y2="32.5"/>
	<line class="st02 easy-line-bottom-s" x1="20.8" y1="28.9" x2="23.4" y2="28.9"/>
</g>
<g id="OK" class="hide-svg">
	<ellipse class="st1" cx="11" cy="13.4" rx="3.3" ry="3.2"/>
	<line class="st02 lightgreen" x1="9.9" y1="12.6" x2="11" y2="14.6"/>
	<line class="st02 lightgreen" x1="12.3" y1="11.9" x2="11" y2="14.5"/>
</g>
<g id="OK_1_" class="hide-svg">
	<ellipse class="st1" cx="32.4" cy="8.1" rx="1.8" ry="1.8"/>
	<line class="st02 lightgreen" x1="31.8" y1="7.7" x2="32.4" y2="8.7"/>
	<line class="st02 lightgreen" x1="33.1" y1="7.3" x2="32.4" y2="8.7"/>
</g>
<g id="mobile-easy" class="hide-svg">
	<path class="st03" d="M35.7,15.6h-6.6c-0.3,0-0.5-0.2-0.5-0.5V3c0-0.3,0.2-0.5,0.5-0.5h6.6c0.3,0,0.5,0.2,0.5,0.5v12.1
		C36.2,15.3,36,15.6,35.7,15.6z"/>
	<line class="st03" x1="28.6" y1="4.1" x2="36.2" y2="4.2"/>
	<line class="st03" x1="28.6" y1="13.8" x2="36.2" y2="13.8"/>
	<ellipse class="st04" cx="32.4" cy="14.8" rx="0.5" ry="0.4"/>
</g>
<g id="mano" class="hide-svg">
	<path class="st05" d="M9.5,33c0.9-0.9,1.9-1.7,2.8-2.6c0.1-0.1,0.2-0.2,0.2-0.4c0-0.1,0-0.2,0-0.3c-0.1-0.1-0.2-0.2-0.3-0.3
		c-0.3-0.1-0.7,0.3-0.7,0.2c0,0,0.3-0.2,0.3-0.6c0,0,0-0.3-0.2-0.5c-0.1-0.1-0.3-0.1-0.4-0.1c-0.4,0-0.7,0.3-0.7,0.3
		c0,0,0.4-0.2,0.5-0.5c0,0,0-0.2,0-0.3c0-0.1-0.1-0.2-0.1-0.2c0,0-0.1-0.1-0.3-0.1c-0.3-0.1-0.6,0.1-0.6,0.1c-0.1-0.1,1.6-1.5,2-2.1
		c0-0.1,0.1-0.2,0.1-0.4c0-0.1,0-0.3-0.1-0.4c-0.1-0.1-0.3-0.1-0.4-0.1c-0.6,0-1.3,0.7-1.8,1.2c-1,0.9-2.1,2-2.2,2.2c0,0,0,0,0,0
		C7.4,28.2,7,27.3,6.3,27c-0.6-0.3-1.5-0.2-1.6,0.1c-0.1,0.3,0.7,0.5,1,1.4c0.3,0.8,0,1.1,0.3,1.9C6.2,30.8,6.4,31,7,31.6
		c1.2,1.4,1.8,1.4,2,1.5C9.2,33.1,9.4,33,9.5,33z"/>
	<line class="st05" x1="5.4" y1="24.6" x2="6.2" y2="25.4"/>
	<line class="st05" x1="6.8" y1="23.7" x2="6.8" y2="24.9"/>
	<line class="st05" x1="8.4" y1="24.6" x2="7.5" y2="25.4"/>
</g>
</svg>
