<?xml version="1.0" encoding="utf-8"?>
<!-- Generator: Adobe Illustrator 24.0.2, SVG Export Plug-In . SVG Version: 6.00 Build 0)  -->
<svg version="1.1" id="Livello_1" xmlns="http://www.w3.org/2000/svg" xmlns:xlink="http://www.w3.org/1999/xlink" x="0px" y="0px"
	 viewBox="0 0 512 512" style="enable-background:new 0 0 512 512;" xml:space="preserve">
<path d="M256.6,409.5C145.9,409.5,86,340.4,86,251.3C86,156,153.5,79.5,274.1,79.5c88,0,151.9,57.2,151.9,136
	c0,123.4-146.3,156-139,85.6c-10.1,15.7-26.3,33.3-57.4,33.3c-35.6,0-57.8-26.1-57.8-68.1c0-63,41.4-116.2,90.4-116.2
	c23.5,0,39.7,12.4,46.4,31.5l6.6-23.1h33.1c-3.5,11.8-32.9,120.8-32.9,120.8c-9.2,37.8,19.1,38.4,44.2,18.4
	c47.2-36.5,49.6-132.1-14.1-172c-68.3-41-223.8-15.6-223.8,123.2c0,79.5,56,132.9,139.2,132.9c48.7,0,78.5-13.2,103.3-27.6
	l16.7,24.1C356.7,391.9,317.8,409.5,256.6,409.5z M223.4,206.9c-10.1,19-16.7,43.6-16.7,62.7c0,51.1,49.9,51.5,74.4,3.4
	c10.1-19.7,16.6-44.9,16.6-64.2C297.7,167.4,248.2,160.1,223.4,206.9z"/>
</svg>
