<?xml version="1.0" encoding="utf-8"?>
<!-- Generator: Adobe Illustrator 24.0.2, SVG Export Plug-In . SVG Version: 6.00 Build 0)  -->
<svg version="1.1" id="Livello_1" xmlns="http://www.w3.org/2000/svg" xmlns:xlink="http://www.w3.org/1999/xlink" x="0px" y="0px"
	 viewBox="0 0 40 40" style="enable-background:new 0 0 40 40;" xml:space="preserve">
<style type="text/css">
	.st0{fill:none;stroke:#FFFFFF;stroke-linecap:round;stroke-linejoin:round;stroke-miterlimit:10;}
	.st1{fill:none;stroke:#FFFFFF;stroke-linecap:round;stroke-linejoin:round;}
	.st2{fill:none;stroke:#FFFFFF;stroke-linecap:round;stroke-linejoin:round;stroke-dasharray:3.247,3.247;}
	.st3{fill:none;stroke:#FFFFFF;stroke-linecap:round;stroke-linejoin:round;stroke-dasharray:3.3724,3.3724;}
	.st4{fill:none;stroke:#FFFFFF;stroke-linecap:round;stroke-linejoin:round;stroke-dasharray:3.0554,3.0554;}
	.st5{fill:none;stroke:#FFFFFF;stroke-linecap:round;stroke-linejoin:round;stroke-dasharray:2.4171,2.4171;}
	.st6{fill:none;stroke:#FFFFFF;stroke-linecap:round;stroke-linejoin:round;stroke-dasharray:2.3337,2.3337;}
	.st7{fill:none;stroke:#FFFFFF;stroke-linecap:round;stroke-linejoin:round;stroke-dasharray:2.3836,2.3836;}
	.st8{fill:none;stroke:#FFFFFF;stroke-linecap:round;stroke-linejoin:round;stroke-dasharray:2.4346,2.4346;}
	.st9{fill:none;stroke:#FFFFFF;stroke-linecap:round;stroke-linejoin:round;stroke-dasharray:2.3548,2.3548;}
</style>
<polyline class="st0" points="28.9,24.3 30.9,37.4 20.2,31.1 9.4,37.3 11.5,24.1 2.9,14.7 14.9,12.9 20.4,1 "/>
<g>
	<g>
		<line class="st1" x1="37.7" y1="15" x2="36.7" y2="16.1"/>
		<line class="st2" x1="34.4" y1="18.4" x2="31.1" y2="22"/>
		<line class="st1" x1="30" y1="23.2" x2="28.9" y2="24.3"/>
	</g>
</g>
<g>
	<g>
		<line class="st1" x1="20.4" y1="1" x2="21" y2="2.4"/>
		<line class="st3" x1="22.4" y1="5.4" x2="24.4" y2="10.1"/>
		<polyline class="st1" points="25.1,11.6 25.7,13 27.2,13.2 		"/>
		<line class="st4" x1="30.2" y1="13.7" x2="34.7" y2="14.5"/>
		<line class="st1" x1="36.2" y1="14.8" x2="37.7" y2="15"/>
	</g>
</g>
<g>
	<g>
		<line class="st1" x1="18.3" y1="10.7" x2="18.7" y2="9.8"/>
		<polyline class="st1" points="19.7,7.7 20.2,6.8 20.6,7.7 		"/>
		<line class="st5" x1="21.6" y1="9.9" x2="23.2" y2="13.2"/>
		<polyline class="st1" points="23.7,14.3 24.1,15.2 25.1,15.3 		"/>
		<line class="st6" x1="27.4" y1="15.7" x2="30.9" y2="16.2"/>
		<polyline class="st1" points="32,16.4 33,16.6 32.3,17.3 		"/>
		<line class="st7" x1="30.6" y1="18.9" x2="28.1" y2="21.5"/>
		<polyline class="st1" points="27.2,22.3 26.5,23 26.7,24 		"/>
		<line class="st8" x1="27.1" y1="26.4" x2="27.6" y2="30"/>
		<polyline class="st1" points="27.8,31.2 28,32.2 27.1,31.7 		"/>
		<line class="st9" x1="25" y1="30.6" x2="21.9" y2="28.9"/>
		<line class="st1" x1="20.9" y1="28.3" x2="20" y2="27.8"/>
	</g>
</g>
<polyline class="st0" points="20,27.8 12.1,32.1 13.6,22.9 7.2,16.4 16.1,15.1 18.3,10.7 "/>
</svg>
