<?xml version="1.0" encoding="utf-8"?>
<!-- Generator: Adobe Illustrator 24.0.2, SVG Export Plug-In . SVG Version: 6.00 Build 0)  -->
<svg version="1.1" id="Livello_1" xmlns="http://www.w3.org/2000/svg" xmlns:xlink="http://www.w3.org/1999/xlink" x="0px" y="0px"
	 viewBox="0 0 40 40" style="enable-background:new 0 0 40 40;" xml:space="preserve">
<style type="text/css">
	.st0{fill:none;stroke:#0ff;stroke-width:0.5;stroke-miterlimit:10;}
</style>
<g id="pc">
	<g id="pc_content">
		<rect x="10.5" y="24" class="st0" width="5.7" height="3.7"/>
		<rect x="10.5" y="28.9" class="st0" width="5.7" height="3.7"/>
		<rect x="10.5" y="33.8" class="st0" width="5.7" height="1.8"/>
		<line class="st0" x1="17.4" y1="25.1" x2="23.4" y2="25.2"/>
		<line class="st0" x1="17.2" y1="26.8" x2="26.8" y2="26.8"/>
		<line class="st0" x1="17.4" y1="30.1" x2="23.4" y2="30"/>
		<line class="st0" x1="17.2" y1="31.5" x2="26.8" y2="31.5"/>
		<line class="st0" x1="17.4" y1="34.7" x2="23.4" y2="34.7"/>
	</g>
	<g id="Pc">
		<path class="st0" d="M7.6,37h24.3V22.5c0-0.8-0.6-1.4-1.4-1.4H9c-0.8,0-1.4,0.6-1.4,1.4V37z"/>
		<rect x="9.1" y="22.8" class="st0" width="21.1" height="12.7"/>
		<path class="st0" d="M32.1,38.8H7.2c-0.8,0-1.5-0.7-1.5-1.5V37h27.9v0.2C33.6,38.1,33,38.8,32.1,38.8z"/>
		<rect x="17.7" y="37" class="st0" width="4" height="0.9"/>
	</g>
</g>
<g id="tablet">
	<g id="Tablet">
		<path class="st0" d="M12.6,18.9H3.5c-0.8,0-1.4-0.6-1.4-1.4V2.3c0-0.8,0.6-1.4,1.4-1.4h9.1c0.8,0,1.4,0.6,1.4,1.4v15.2
			C14,18.3,13.4,18.9,12.6,18.9z"/>
		<path class="st0" d="M11.3,16.9H4.8c-0.8,0-1.4-0.6-1.4-1.4V3.9c0-0.8,0.6-1.4,1.4-1.4h6.6c0.8,0,1.4,0.6,1.4,1.4v11.5
			C12.7,16.3,12.1,16.9,11.3,16.9z"/>
		<ellipse class="st0" cx="8.1" cy="18.1" rx="0.5" ry="0.5"/>
		<line class="st0" x1="6.9" y1="1.7" x2="9" y2="1.7"/>
	</g>
	<g id="tablet_content">
		<path class="st0" d="M10.2,6.8H5.8c-0.7,0-1.3-0.6-1.3-1.3V5.1c0-0.7,0.6-1.3,1.3-1.3h4.4c0.7,0,1.3,0.6,1.3,1.3v0.5
			C11.5,6.3,11,6.8,10.2,6.8z"/>
		<path class="st0" d="M6.4,10.1H5.5c-0.5,0-0.9-0.4-0.9-0.9V8.8c0-0.5,0.4-0.9,0.9-0.9h0.9c0.5,0,0.9,0.4,0.9,0.9v0.4
			C7.3,9.7,6.9,10.1,6.4,10.1z"/>
		<path class="st0" d="M10.6,10.1H9.8c-0.5,0-0.9-0.4-0.9-0.9V8.8c0-0.5,0.4-0.9,0.9-0.9h0.8c0.5,0,0.9,0.4,0.9,0.9v0.4
			C11.5,9.7,11.1,10.1,10.6,10.1z"/>
		<line class="st0" x1="8.8" y1="15.7" x2="11.5" y2="15.7"/>
		<line class="st0" x1="8.8" y1="14.5" x2="11.6" y2="14.5"/>
		<line class="st0" x1="8.7" y1="13.3" x2="11.4" y2="13.3"/>
		<line class="st0" x1="8.8" y1="12.2" x2="11.6" y2="12.2"/>
		<line class="st0" x1="8.8" y1="11.1" x2="11.6" y2="11.1"/>
		<line class="st0" x1="4.6" y1="15.7" x2="7.3" y2="15.7"/>
		<line class="st0" x1="4.6" y1="14.5" x2="7.4" y2="14.5"/>
		<line class="st0" x1="4.6" y1="13.3" x2="7.4" y2="13.3"/>
		<line class="st0" x1="4.6" y1="12.2" x2="7.4" y2="12.2"/>
		<line class="st0" x1="4.6" y1="11.1" x2="7.4" y2="11.1"/>
	</g>
</g>
<g id="phone">
	<g id="Phone">
		<path class="st0" d="M34.9,16.3h-4c-1.1,0-2-0.9-2-2V4.7c0-1.1,0.9-2,2-2h4c1.1,0,2,0.9,2,2v9.6C36.9,15.4,36,16.3,34.9,16.3z"/>
		<line class="st0" x1="28.9" y1="4.5" x2="36.9" y2="4.5"/>
		<line class="st0" x1="32.1" y1="3.6" x2="33.7" y2="3.6"/>
		<line class="st0" x1="36.9" y1="14.4" x2="28.9" y2="14.4"/>
		<ellipse class="st0" cx="32.9" cy="15.4" rx="0.5" ry="0.4"/>
	</g>
	<g id="phone_content">
		<rect x="29.8" y="7.6" class="st0" width="1.6" height="1.3"/>
		<rect x="29.8" y="9.7" class="st0" width="1.6" height="1.3"/>
		<rect x="29.8" y="11.8" class="st0" width="1.6" height="1.4"/>
		<line class="st0" x1="32" y1="5.9" x2="34.6" y2="5.9"/>
		<line class="st0" x1="32" y1="6.5" x2="35.9" y2="6.5"/>
		<line class="st0" x1="32" y1="8" x2="34.6" y2="8"/>
		<line class="st0" x1="32" y1="8.5" x2="35.9" y2="8.5"/>
		<line class="st0" x1="32" y1="10" x2="34.6" y2="10"/>
		<line class="st0" x1="32" y1="10.7" x2="35.9" y2="10.7"/>
		<line class="st0" x1="32" y1="12.2" x2="34.6" y2="12.2"/>
		<line class="st0" x1="32" y1="12.9" x2="35.9" y2="12.9"/>
		<rect x="29.8" y="5.4" class="st0" width="1.6" height="1.4"/>
	</g>
</g>
</svg>
