<?xml version="1.0" encoding="utf-8"?>
<!-- Generator: Adobe Illustrator 24.0.2, SVG Export Plug-In . SVG Version: 6.00 Build 0)  -->
<svg version="1.1" id="Livello_1" xmlns="http://www.w3.org/2000/svg" xmlns:xlink="http://www.w3.org/1999/xlink" x="0px" y="0px"
	 viewBox="0 0 33 33" style="enable-background:new 0 0 33 33;" xml:space="preserve">
<style type="text/css">
	.st0{fill:none;stroke:#0ff;stroke-width:0.5;stroke-miterlimit:10;}
</style>
<g id="Pc">
	<path class="st0" d="M2.5,26.5h28.1V5.4C30.6,4.6,30,4,29.2,4H3.9C3.1,4,2.5,4.6,2.5,5.4V26.5z"/>
	<rect x="4.2" y="6.4" class="st0" width="24.5" height="18"/>
	<path class="st0" d="M31.2,29H1.8c-0.8,0-1.5-0.7-1.5-1.5v-1h32.4v1C32.7,28.3,32,29,31.2,29z"/>
	<rect x="14.2" y="26.5" class="st0" width="4.6" height="1.2"/>
</g>
<g id="Tablet">
	<path class="st0" d="M18.7,21.5h-5.5c-0.8,0-1.4-0.6-1.4-1.4V9.6c0-0.8,0.6-1.4,1.4-1.4h5.5c0.8,0,1.4,0.6,1.4,1.4v10.5
		C20.1,20.9,19.5,21.5,18.7,21.5z"/>
	<path class="st0" d="M17.9,20h-3.7c-0.8,0-1.4-0.6-1.4-1.4v-7.8c0-0.8,0.6-1.4,1.4-1.4h3.7c0.8,0,1.4,0.6,1.4,1.4v7.8
		C19.3,19.4,18.6,20,17.9,20z"/>
	<ellipse class="st0" cx="16" cy="20.9" rx="0.3" ry="0.4"/>
	<line class="st0" x1="15.2" y1="8.8" x2="16.7" y2="8.8"/>
</g>
</svg>
