<?xml version="1.0" encoding="utf-8"?>
<!-- Generator: Adobe Illustrator 24.0.2, SVG Export Plug-In . SVG Version: 6.00 Build 0)  -->
<svg version="1.1" id="Livello_1" xmlns="http://www.w3.org/2000/svg" xmlns:xlink="http://www.w3.org/1999/xlink" x="0px" y="0px"
	 viewBox="0 0 40 40" style="enable-background:new 0 0 40 40;" xml:space="preserve">
<style type="text/css">
	.st0{fill:none;stroke:#0ff;stroke-width:0.5;stroke-miterlimit:10;}
	.st1{fill:none;stroke:#0ff;stroke-width:0.3;stroke-miterlimit:10;}
</style>
<g id="matita">
	<path class="st0" d="M23.1,8.1H9.1C8.9,8.1,8.8,8,8.8,7.8V5.2c0-0.2,0.1-0.3,0.3-0.3h14.1c0.2,0,0.3,0.1,0.3,0.3v2.6
		C23.4,8,23.3,8.1,23.1,8.1z"/>
	<polygon class="st0" points="4.6,6.6 6.1,6.1 8.8,5.2 8.8,7.9 4.6,6.7 	"/>
	<line class="st0" x1="8.9" y1="6.6" x2="13.2" y2="6.6"/>
	<line class="st0" x1="6" y1="6.1" x2="6" y2="7.1"/>
	<line class="st0" x1="21.9" y1="4.9" x2="21.9" y2="8.1"/>
	<polyline class="st0" points="23.6,5.5 24.4,5.5 24.4,7.5 23.6,7.5 	"/>
</g>
<g id="tablet">
	<path class="st0" d="M30.7,30.6H3.4c-0.3,0-0.5-0.2-0.5-0.5V11.7c0-0.3,0.2-0.5,0.5-0.5h27.3c0.3,0,0.5,0.2,0.5,0.5v18.4
		C31.2,30.3,30.9,30.6,30.7,30.6z"/>
	<line class="st0" x1="2.9" y1="13.8" x2="31.2" y2="13.7"/>
	<line class="st0" x1="7.7" y1="11.2" x2="7.7" y2="13.8"/>
	<line class="st0" x1="9.4" y1="12.5" x2="27.5" y2="12.5"/>
	<circle class="st0" cx="4.2" cy="12.5" r="0.3"/>
	<circle class="st0" cx="6.2" cy="12.5" r="0.3"/>
</g>
<g id="tab_content">
	<path class="st1" d="M17.1,24H5c-0.3,0-0.5-0.2-0.5-0.5v-7.7c0-0.3,0.2-0.5,0.5-0.5h12.1c0.3,0,0.5,0.2,0.5,0.5v7.7
		C17.6,23.8,17.4,24,17.1,24z"/>
	<path class="st1" d="M28.6,19.1h-7.4c-0.3,0-0.5-0.2-0.5-0.5v-2.7c0-0.3,0.2-0.5,0.5-0.5h7.4c0.3,0,0.5,0.2,0.5,0.5v2.7
		C29.1,18.8,28.9,19.1,28.6,19.1z"/>
	<path class="st1" d="M28.6,20.6h-7.4c-0.3,0-0.5,0.2-0.5,0.5v2.4c0,0.3,0.2,0.5,0.5,0.5h7.4c0.3,0,0.5-0.2,0.5-0.5v-2.4
		C29.1,20.9,28.9,20.6,28.6,20.6z"/>
	<line class="st1" x1="4.6" y1="26.6" x2="16.1" y2="26.6"/>
	<line class="st1" x1="4.6" y1="28.7" x2="11.9" y2="28.7"/>
	<polygon class="st1" points="9.8,21.3 9.8,18.4 13.5,19.8 	"/>
</g>
<g id="righello">
	<path class="st0" d="M37,34.2h-3.5c-0.1,0-0.2-0.1-0.2-0.2V7.4c0-0.1,0.1-0.2,0.2-0.2H37c0.1,0,0.2,0.1,0.2,0.2V34
		C37.2,34.1,37.1,34.2,37,34.2z"/>
	<line class="st1" x1="33.3" y1="32" x2="34.9" y2="32"/>
	<line class="st1" x1="33.3" y1="30" x2="34.9" y2="30"/>
	<line class="st1" x1="33.3" y1="28" x2="34.9" y2="28"/>
	<line class="st1" x1="33.3" y1="26" x2="34.9" y2="26"/>
	<line class="st1" x1="33.3" y1="24" x2="34.9" y2="24"/>
	<line class="st1" x1="33.3" y1="22" x2="34.9" y2="22"/>
	<line class="st1" x1="33.3" y1="20" x2="34.9" y2="20"/>
	<line class="st1" x1="33.3" y1="18" x2="34.9" y2="18"/>
	<line class="st1" x1="33.3" y1="16" x2="34.9" y2="16"/>
	<line class="st1" x1="33.3" y1="14" x2="34.9" y2="14"/>
	<line class="st1" x1="33.3" y1="12" x2="34.9" y2="12"/>
	<line class="st1" x1="33.3" y1="10" x2="34.9" y2="10"/>
</g>
</svg>
