<?xml version="1.0" encoding="utf-8"?>
<!-- Generator: Adobe Illustrator 24.0.2, SVG Export Plug-In . SVG Version: 6.00 Build 0)  -->
<svg version="1.1" id="Livello_1" xmlns="http://www.w3.org/2000/svg" xmlns:xlink="http://www.w3.org/1999/xlink" x="0px" y="0px"
	 viewBox="0 0 40 40" style="enable-background:new 0 0 40 40;" xml:space="preserve">
<style type="text/css">
	.st0{fill:none;stroke:#0ff;stroke-width:0.5;stroke-miterlimit:10;}
	.st1{fill:none;stroke:#0ff;stroke-width:0.3;stroke-miterlimit:10;}
</style>
<g id="matita">
	<path class="st0" d="M18.3,33L8,14.9c-0.1-0.1,0-0.3,0.1-0.4l2.8-1.6c0.1-0.1,0.3,0,0.4,0.1l10.3,18.1c0.1,0.1,0,0.3-0.1,0.4
		l-2.8,1.6C18.5,33.2,18.3,33.2,18.3,33z"/>
	<polygon class="st0" points="6.4,8.4 8,10 10.8,12.9 8,14.5 6.3,8.5 	"/>
	<line class="st0" x1="7.8" y1="9.9" x2="6.8" y2="10.5"/>
	<line class="st0" x1="20.6" y1="29.5" x2="17.3" y2="31.4"/>
	<polyline class="st0" points="21.2,31.9 21.8,33 19.8,34.2 19.1,33.1 	"/>
</g>
<g id="righello">
	<path class="st0" d="M31,34.2h-3.5c-0.1,0-0.2-0.1-0.2-0.2V7.4c0-0.1,0.1-0.2,0.2-0.2H31c0.1,0,0.2,0.1,0.2,0.2V34
		C31.2,34.1,31.1,34.2,31,34.2z"/>
	<line class="st1" x1="27.3" y1="32" x2="28.9" y2="32"/>
	<line class="st1" x1="27.3" y1="30" x2="28.9" y2="30"/>
	<line class="st1" x1="27.3" y1="28" x2="28.9" y2="28"/>
	<line class="st1" x1="27.3" y1="26" x2="28.9" y2="26"/>
	<line class="st1" x1="27.3" y1="24" x2="28.9" y2="24"/>
	<line class="st1" x1="27.3" y1="22" x2="28.9" y2="22"/>
	<line class="st1" x1="27.3" y1="20" x2="28.9" y2="20"/>
	<line class="st1" x1="27.3" y1="18" x2="28.9" y2="18"/>
	<line class="st1" x1="27.3" y1="16" x2="28.9" y2="16"/>
	<line class="st1" x1="27.3" y1="14" x2="28.9" y2="14"/>
	<line class="st1" x1="27.3" y1="12" x2="28.9" y2="12"/>
	<line class="st1" x1="27.3" y1="10" x2="28.9" y2="10"/>
</g>
</svg>
