<?xml version="1.0" encoding="utf-8"?>
<!-- Generator: Adobe Illustrator 24.0.2, SVG Export Plug-In . SVG Version: 6.00 Build 0)  -->
<svg version="1.1" xmlns="http://www.w3.org/2000/svg" xmlns:xlink="http://www.w3.org/1999/xlink" x="0px" y="0px"
	 viewBox="0 0 40 40" style="enable-background:new 0 0 40 40;" xml:space="preserve">
<style type="text/css">
	.st0{fill:none;stroke:#0ff;stroke-width:0.5;stroke-miterlimit:10;}
	.st1{fill:none;stroke:#0ff;stroke-width:0.3;stroke-miterlimit:10;}
	.st2{fill:none;stroke:#0ff;stroke-width:0.3;stroke-miterlimit:10;stroke-dasharray:1;}
	.st3{fill:none;stroke:#0ff;stroke-width:0.2;stroke-miterlimit:10;}
</style>
<g id="lamp">
	<path class="st0" d="M28.3,18.3c0.1,1.6-0.3,3.8-1.3,5.5c-1,1.7-1.7,1.8-2.4,3.4c-0.8,2.2,0,3.5-1,4.4c-0.3,0.3-0.6,0.3-3.4,0.2
		c-3-0.1-3.3-0.1-3.5-0.4c-1.1-0.9-0.2-2.3-1.2-4.6C14.8,25,13.9,25,13,23.2c-0.9-1.8-1-3.7-0.9-4.9c0.3-3.5,3.3-8.2,8.1-8.2
		C25,10.1,28,14.8,28.3,18.3z"/>
	<path class="st0" d="M23.2,32.2c0.3,0.6-1.3,2.5-3,2.5c-1.8,0-3.3-1.9-3-2.5c0.1-0.1,0.2-0.3,3.1-0.3C23,31.9,23.2,32,23.2,32.2z"
		/>
	<line class="st1" x1="17.6" y1="33.4" x2="22.7" y2="33.4"/>
	<path class="st1" d="M21.3,20.6h-2.4c-0.3,0.1-0.8,0.4-1.1,0.9c-0.7,1.2,0.1,2.8,0.6,4.3c0.4,1.3,0.8,3.3,0.5,6c0.8,0,1.6,0,2.4,0
		c-0.2-2.6,0.2-4.6,0.6-6c0.5-1.7,1.3-3.4,0.6-4.4C22.2,20.9,21.7,20.7,21.3,20.6z"/>
	<line class="st1" x1="20.2" y1="20.6" x2="20.2" y2="26.1"/>
</g>
<g id="effetti">
	<g id="linea_sx">
		<line class="st2" x1="4.6" y1="19" x2="10.7" y2="19"/>
		<line class="st2" x1="4.6" y1="19" x2="4.6" y2="13.5"/>
	</g>
	<g id="linea_dx">
		<line class="st2" x1="29.7" y1="19" x2="35.7" y2="19"/>
		<line class="st2" x1="35.7" y1="19" x2="35.7" y2="24.5"/>
	</g>
	<polygon id="stella" class="st1" points="38.1,34.6 35.6,33.1 33.2,34.6 33.7,31.5 31.7,29.4 34.4,29 35.7,26.2 36.9,29 39.6,29.4 
		37.6,31.6 	"/>
	<g id="fiore">
		<path class="st3" d="M7.9,10.1c0-1.8-1.4-3.3-3.2-3.3s-3.2,1.5-3.2,3.3c1.7,0,3.2-1.5,3.2-3.3S3.3,3.5,1.6,3.5
			c0,1.8,1.4,3.3,3.2,3.3s3.2-1.5,3.2-3.3C6.2,3.5,4.7,5,4.7,6.8S6.2,10.1,7.9,10.1z"/>
		<path class="st3" d="M5,11.5C6.1,10.1,6,8,4.7,6.8S1.4,5.7,0.3,7.1c1.3,1.2,3.3,1.1,4.5-0.3s1-3.4-0.3-4.6c-1.2,1.3-1,3.4,0.3,4.6
			s3.3,1.1,4.5-0.3C7.9,5.4,5.9,5.5,4.7,6.8S3.7,10.3,5,11.5z"/>
	</g>
	<g id="luce">
		<line class="st3" x1="12.8" y1="6.2" x2="15.6" y2="10"/>
		<line class="st3" x1="20.1" y1="4.5" x2="20.2" y2="8.9"/>
		<line class="st3" x1="24.8" y1="10.1" x2="27.8" y2="6.5"/>
	</g>
</g>
</svg>
