<?xml version="1.0" encoding="utf-8"?>
<!-- Generator: Adobe Illustrator 24.0.2, SVG Export Plug-In . SVG Version: 6.00 Build 0)  -->
<svg version="1.1" xmlns="http://www.w3.org/2000/svg" xmlns:xlink="http://www.w3.org/1999/xlink" x="0px" y="0px"
	 viewBox="0 0 40 40" style="enable-background:new 0 0 40 40;" xml:space="preserve">
<style type="text/css">
	.st0{fill:none;stroke:#0ff;stroke-width:0.5;stroke-miterlimit:10;}
	.st1{fill:none;stroke:#0ff;stroke-width:0.3;stroke-miterlimit:10;}
</style>
<g id="lamp">
	<path class="st0" d="M22.8,11.1c3,1.2,4.8,4.4,5,6.9c0.1,1.5-0.3,3.4-1.2,5c-0.9,1.5-1.6,1.6-2.2,3.1c-0.8,2,0,3.2-0.9,4
		c-0.3,0.2-0.5,0.3-3.2,0.2c-2.8-0.1-3.1-0.1-3.3-0.3c-1-0.8-0.1-2.1-1.1-4.2c-0.7-1.7-1.6-1.6-2.4-3.3c-0.9-1.6-1-3.4-0.9-4.4
		c0.2-2.5,2-5.7,5-6.9"/>
	<path class="st0" d="M23,30.6c0.2,0.6-1.2,2.3-2.9,2.3c-1.7,0-3.1-1.7-2.9-2.3c0.1-0.1,0.2-0.3,3-0.3C22.7,30.4,22.9,30.5,23,30.6z
		"/>
	<path class="st1" d="M21.2,20.2h-2.2c-0.3,0.1-0.7,0.4-1,0.8c-0.7,1.1,0.1,2.5,0.5,3.9c0.4,1.2,0.7,3,0.5,5.4c0.7,0,1.5,0,2.2,0
		c-0.2-2.4,0.2-4.2,0.6-5.5c0.5-1.5,1.2-3,0.5-4C22,20.5,21.5,20.3,21.2,20.2z"/>
</g>
<g id="effetti">
	<polygon id="stella" class="st0" points="23.3,14.3 20.1,12.6 16.9,14.2 17.6,10.6 15,8.1 18.6,7.6 20.2,4.3 21.8,7.6 25.4,8.1 
		22.8,10.7 	"/>
</g>
</svg>
