<?xml version="1.0" encoding="utf-8"?>
<!-- Generator: Adobe Illustrator 24.0.2, SVG Export Plug-In . SVG Version: 6.00 Build 0)  -->
<svg version="1.1" id="Livello_1" xmlns="http://www.w3.org/2000/svg" xmlns:xlink="http://www.w3.org/1999/xlink" x="0px" y="0px"
	 viewBox="0 0 40 40" style="enable-background:new 0 0 40 40;" xml:space="preserve">
<style type="text/css">
	.st0{fill:none;stroke:#FFFFFF;stroke-linecap:round;stroke-linejoin:round;stroke-miterlimit:10;}
	.st1{fill:#FFFFFF;stroke:#FFFFFF;stroke-linecap:round;stroke-linejoin:round;stroke-miterlimit:10;}
</style>
<polyline class="st0" points="24.3,8.5 5.5,8.5 5.5,30.5 35.5,30.5 35.5,14.3 "/>
<g>
	<path class="st1" d="M23.6,15.8L23,15c0,0,0,0,0,0L34,3.9c0.5-0.5,1.4-0.5,1.9,0l0.3,0.3c0.4,0.5,0.4,1.3-0.1,1.7L23.6,15.8z"/>
	<path class="st1" d="M22.4,17.8c0.3-0.4,0.1-0.9,0.1-0.9c-0.1-0.4-1.1-1.4-0.8-1.1c0,0-0.7-0.3-0.9-0.1c-0.2,0.1,0,0.5-0.1,0.9
		c-0.3,1-2.2,1.2-2.1,1.6c0,0.3,1.2,0.3,1.8,0.3C21.3,18.4,22.1,18.3,22.4,17.8z"/>
</g>
<line class="st0" x1="5.5" y1="27" x2="35.5" y2="27"/>
</svg>
