<?xml version="1.0" encoding="utf-8"?>
<!-- Generator: Adobe Illustrator 24.0.2, SVG Export Plug-In . SVG Version: 6.00 Build 0)  -->
<svg version="1.1" id="Livello_1" xmlns="http://www.w3.org/2000/svg" xmlns:xlink="http://www.w3.org/1999/xlink" x="0px" y="0px"
	 viewBox="0 0 512 512" style="enable-background:new 0 0 512 512;" xml:space="preserve">
<path d="M80,431.3l24.7-90.3c-15.3-26.4-23.3-56.4-23.3-87.1c0-96.1,78.2-174.2,174.3-174.2c46.6,0,90.4,18.2,123.3,51.1
	c32.9,32.9,51,76.7,51,123.3c0,96.1-78.2,174.3-174.3,174.3c-29.2,0-57.9-7.3-83.3-21.2C172.4,407.1,80,431.3,80,431.3z
	 M176.7,375.6c24.6,14.6,48,23.3,79,23.3c79.8,0,144.9-65,144.9-144.8c0-80-64.7-144.9-144.8-144.9c-79.9,0-144.9,65-144.9,144.8
	c0,32.6,9.5,57,25.6,82.6l-14.6,53.5C121.8,389.9,176.7,375.6,176.7,375.6z M343.5,295.5c-1.1-1.8-4-2.9-8.4-5.1
	c-4.4-2.2-25.8-12.7-29.8-14.2c-4-1.5-6.9-2.2-9.8,2.2c-2.9,4.4-11.3,14.2-13.8,17.1s-5.1,3.3-9.4,1.1s-18.4-6.8-35-21.6
	c-12.9-11.5-21.7-25.8-24.2-30.2c-2.5-4.4-0.3-6.7,1.9-8.9c2-1.9,4.4-5.1,6.5-7.6c2.2-2.5,2.9-4.3,4.4-7.3c1.5-2.9,0.7-5.5-0.4-7.6
	c-1.1-2.2-9.8-23.6-13.4-32.3c-3.5-8.5-7.1-7.3-9.8-7.5l-8.4-0.1c-2.9,0-7.6,1.1-11.6,5.5s-15.2,14.9-15.2,36.3s15.6,42.1,17.8,45
	c2.2,2.9,30.7,46.9,74.4,65.7c10.4,4.5,18.5,7.2,24.8,9.2c10.4,3.3,19.9,2.8,27.4,1.7c8.4-1.2,25.8-10.5,29.4-20.7
	C344.6,306,344.6,297.3,343.5,295.5z"/>
</svg>
