<?xml version="1.0" encoding="utf-8"?>
<!-- Generator: Adobe Illustrator 24.0.2, SVG Export Plug-In . SVG Version: 6.00 Build 0)  -->
<?xml-stylesheet type="text/css" href="svg.css" ?>
<svg version="1.1" xmlns="http://www.w3.org/2000/svg" xmlns:xlink="http://www.w3.org/1999/xlink" x="0px" y="0px"
	 viewBox="0 0 1848 1080" style="enable-background:new 0 0 1848 1080;" xml:space="preserve">
<style type="text/css">
	.st0{fill:url(#SVGID_1_);}
	.st1{fill:url(#SVGID_2_);}
	.st2{fill:url(#SVGID_3_);}
	.st3{opacity:0.53;fill:#0071BC;}
	.st4{opacity:0.53;fill:url(#SVGID_4_);}
	.st5{fill:url(#SVGID_5_);}
	.st6{fill:url(#SVGID_6_);}
	.st7{fill:url(#SVGID_7_);}
	.st8{opacity:0.53;fill:url(#SVGID_8_);}
	.st9{fill:none;stroke:#00FFFF;stroke-linecap:round;stroke-miterlimit:10;}
	.st10{fill:none;stroke:#00FFFF;stroke-width:3;stroke-linecap:round;stroke-miterlimit:10;stroke-dasharray:83.1492,15.5905;}
	.st11{fill:none;stroke:#00FFFF;stroke-width:4;stroke-linecap:round;stroke-miterlimit:10;stroke-dasharray:50,15;}
	.st12{fill:none;stroke:#00FFFF;stroke-width:2;stroke-miterlimit:10;}
	.st13{fill:#FFFFFF;stroke:#0071BC;stroke-width:3;stroke-linecap:round;stroke-miterlimit:10;}
</style>
<g id="dx">
	<g>
		
			<radialGradient id="SVGID_1_" cx="924.408" cy="545.4263" r="204.7575" gradientTransform="matrix(1.7375 0 0 1.7375 -681.4054 -403.3861)" gradientUnits="userSpaceOnUse">
			<stop  offset="0" style="stop-color:#FFFFFF;stop-opacity:0.7"/>
			<stop  offset="8.609019e-02" style="stop-color:#F6F8FA;stop-opacity:0.7258"/>
			<stop  offset="0.2279" style="stop-color:#DDE6EC;stop-opacity:0.7684"/>
			<stop  offset="0.4078" style="stop-color:#B4C9D6;stop-opacity:0.8224"/>
			<stop  offset="0.6189" style="stop-color:#7CA0B6;stop-opacity:0.8857"/>
			<stop  offset="0.8532" style="stop-color:#356D8F;stop-opacity:0.956"/>
			<stop  offset="1" style="stop-color:#054A74"/>
		</radialGradient>
		<path class="st0" d="M923,97c248.5,0,450,201.5,450,450s-201.5,450-450,450"/>
		<g>
			<image style="overflow:visible;" width="523" height="974" xlink:href="7A3E4543.png"  transform="matrix(1 0 0 1 887 60)">
			</image>
		</g>
	</g>
	<g>
		
			<radialGradient id="SVGID_2_" cx="929.18" cy="546.2131" r="204.7575" gradientTransform="matrix(1.1583 0 0 1.1583 -146.2703 -86.5907)" gradientUnits="userSpaceOnUse">
			<stop  offset="0" style="stop-color:#FFFFFF;stop-opacity:0.8"/>
			<stop  offset="8.650882e-02" style="stop-color:#F5F8F9;stop-opacity:0.8173"/>
			<stop  offset="0.2337" style="stop-color:#DAE4EA;stop-opacity:0.8467"/>
			<stop  offset="0.4237" style="stop-color:#AEC4D2;stop-opacity:0.8847"/>
			<stop  offset="0.6492" style="stop-color:#7198B0;stop-opacity:0.9298"/>
			<stop  offset="0.9018" style="stop-color:#256186;stop-opacity:0.9804"/>
			<stop  offset="1" style="stop-color:#054A74"/>
		</radialGradient>
		<path class="st1" d="M924,247c165.7,0,300,134.3,300,300s-134.3,300-300,300"/>
		<g>
			<image style="overflow:visible;" width="417" height="762" xlink:href="7A3E4541.png"  transform="matrix(1 0 0 1 888 166)">
			</image>
		</g>
	</g>
	<g>
		
			<radialGradient id="SVGID_3_" cx="928.056" cy="548.3489" r="204.7575" gradientTransform="matrix(0.6757 0 0 0.6757 299.6757 177.4054)" gradientUnits="userSpaceOnUse">
			<stop  offset="0" style="stop-color:#FFFFFF;stop-opacity:0.7"/>
			<stop  offset="9.862012e-02" style="stop-color:#DFE8ED;stop-opacity:0.7296"/>
			<stop  offset="0.3511" style="stop-color:#93B0C3;stop-opacity:0.8053"/>
			<stop  offset="0.5764" style="stop-color:#5684A1;stop-opacity:0.8729"/>
			<stop  offset="0.7663" style="stop-color:#2A6589;stop-opacity:0.9299"/>
			<stop  offset="0.9135" style="stop-color:#0F517A;stop-opacity:0.974"/>
			<stop  offset="1" style="stop-color:#054A74"/>
		</radialGradient>
		<path class="st2" d="M924,372c96.6,0,175,78.4,175,175s-78.4,175-175,175"/>
		<g>
			<image style="overflow:visible;" width="247" height="422" xlink:href="7A3E4547.png"  transform="matrix(1 0 0 1 888 336)">
			</image>
		</g>
	</g>
	<rect x="924" class="st3" width="924" height="1080"/>
	<linearGradient id="SVGID_4_" gradientUnits="userSpaceOnUse" x1="924" y1="540" x2="1848" y2="540">
		<stop  offset="0" style="stop-color:#F2F2F2"/>
		<stop  offset="0.1704" style="stop-color:#C1C1C1"/>
		<stop  offset="0.473" style="stop-color:#6F6F6F"/>
		<stop  offset="0.7219" style="stop-color:#333333"/>
		<stop  offset="0.9039" style="stop-color:#0E0E0E"/>
		<stop  offset="1" style="stop-color:#000000"/>
	</linearGradient>
	<rect x="924" class="st4" width="924" height="1080"/>
</g>
<g id="sx">
	<g>
		
			<radialGradient id="SVGID_5_" cx="925.1147" cy="544.3772" r="204.7575" gradientTransform="matrix(1.7375 0 0 1.7375 -681.4054 -403.3861)" gradientUnits="userSpaceOnUse">
			<stop  offset="0" style="stop-color:#FFFFFF;stop-opacity:0.7"/>
			<stop  offset="0.115" style="stop-color:#FBFCFD;stop-opacity:0.7345"/>
			<stop  offset="0.2405" style="stop-color:#EDF2F5;stop-opacity:0.7722"/>
			<stop  offset="0.3711" style="stop-color:#D8E2E9;stop-opacity:0.8113"/>
			<stop  offset="0.5051" style="stop-color:#B9CCD8;stop-opacity:0.8515"/>
			<stop  offset="0.6418" style="stop-color:#92B0C2;stop-opacity:0.8925"/>
			<stop  offset="0.7807" style="stop-color:#618DA7;stop-opacity:0.9342"/>
			<stop  offset="0.9188" style="stop-color:#296488;stop-opacity:0.9756"/>
			<stop  offset="1" style="stop-color:#054A74"/>
		</radialGradient>
		<path class="st5" d="M924,997c-248.5,0-450-201.5-450-450S675.5,97,924,97"/>
		<g>
			<image style="overflow:visible;" width="522" height="972" xlink:href="7A3E4540.png"  transform="matrix(1 0 0 1 438 61)">
			</image>
		</g>
	</g>
	<g>
		
			<radialGradient id="SVGID_6_" cx="925.1147" cy="547" r="204.7575" gradientTransform="matrix(1.1583 0 0 1.1583 -146.2703 -86.5907)" gradientUnits="userSpaceOnUse">
			<stop  offset="0" style="stop-color:#FFFFFF;stop-opacity:0.8"/>
			<stop  offset="8.615156e-02" style="stop-color:#F6F8FA;stop-opacity:0.8172"/>
			<stop  offset="0.2276" style="stop-color:#DDE6EC;stop-opacity:0.8455"/>
			<stop  offset="0.4068" style="stop-color:#B5C9D6;stop-opacity:0.8814"/>
			<stop  offset="0.6168" style="stop-color:#7DA1B7;stop-opacity:0.9234"/>
			<stop  offset="0.8497" style="stop-color:#366E8F;stop-opacity:0.9699"/>
			<stop  offset="1" style="stop-color:#054A74"/>
		</radialGradient>
		<path class="st6" d="M924,847c-165.7,0-300-134.3-300-300s134.3-300,300-300"/>
		<g>
			<image style="overflow:visible;" width="417" height="762" xlink:href="7A3E454E.png"  transform="matrix(1 0 0 1 543 166)">
			</image>
		</g>
	</g>
	<g>
		
			<radialGradient id="SVGID_7_" cx="928.0372" cy="545.6511" r="204.7575" gradientTransform="matrix(0.6757 0 0 0.6757 299.6757 177.4054)" gradientUnits="userSpaceOnUse">
			<stop  offset="0" style="stop-color:#FFFFFF;stop-opacity:0.7"/>
			<stop  offset="7.422751e-02" style="stop-color:#EBF0F4;stop-opacity:0.7223"/>
			<stop  offset="0.5373" style="stop-color:#7198B0;stop-opacity:0.8612"/>
			<stop  offset="0.8548" style="stop-color:#236085;stop-opacity:0.9564"/>
			<stop  offset="1" style="stop-color:#054A74"/>
		</radialGradient>
		<path class="st7" d="M924,722c-96.6,0-175-78.4-175-175s78.4-175,175-175"/>
		<g>
			<image style="overflow:visible;" width="247" height="422" xlink:href="7A3E454F.png"  transform="matrix(1 0 0 1 713 336)">
			</image>
		</g>
	</g>
	<rect class="st3" width="924" height="1080"/>
	<linearGradient id="SVGID_8_" gradientUnits="userSpaceOnUse" x1="0" y1="540" x2="924" y2="540">
		<stop  offset="5.114678e-07" style="stop-color:#000000"/>
		<stop  offset="9.611457e-02" style="stop-color:#0E0E0E"/>
		<stop  offset="0.2781" style="stop-color:#333333"/>
		<stop  offset="0.527" style="stop-color:#6F6F6F"/>
		<stop  offset="0.8296" style="stop-color:#C1C1C1"/>
		<stop  offset="1" style="stop-color:#F2F2F2"/>
	</linearGradient>
	<rect class="st8" width="924" height="1080"/>
</g>
<g id="forme">
	<circle class="st9" cx="924" cy="547" r="131"/>
	<g>
		<circle class="st10" cx="924" cy="547" r="110"/>
	</g>
	<circle class="st11" cx="924" cy="547" r="75"/>
	<g>
		<g>
			<g>
				<g>
					<g>
						<path class="st12" d="M974,549.4v-4.7l-5.1-0.8c-0.2-2.7-0.6-5.3-1.2-7.8l4.6-2.3l-1.5-4.5l-5,0.8c-1-2.5-2.2-4.8-3.5-7
							l3.6-3.6l-2.9-3.8l-4.4,2.3c-1.7-2-3.5-3.9-5.5-5.6l2.3-4.5l-4-2.7l-3.4,3.5c-2.2-1.4-4.5-2.6-7-3.6l0.8-4.9l-4.6-1.4
							l-2.2,4.3c-2.5-0.6-5.1-1.1-7.8-1.3l-0.7-4.8h-4.9l-0.7,4.8c-2.7,0.2-5.3,0.6-7.8,1.2l-2.1-4.2l-4.6,1.4l0.8,4.8
							c-2.5,1-4.9,2.2-7.1,3.6l-3.3-3.3l-4,2.7l2.2,4.3c-2,1.7-3.9,3.6-5.7,5.7l-4.2-2.2l-2.9,3.8l3.4,3.4c-1.4,2.3-2.6,4.7-3.6,7.2
							l-4.7-0.8l-1.5,4.5l4.3,2.2c-0.6,2.6-1.1,5.2-1.2,8l-4.8,0.7v4.7l4.8,0.7c0.2,2.7,0.6,5.4,1.3,7.9l-4.4,2.2l1.5,4.5l4.8-0.8
							c1,2.5,2.2,4.8,3.7,7.1l-3.6,3.5l2.9,3.8l4.4-2.2c1.7,2,3.6,3.9,5.6,5.5l-2.3,4.5l4,2.7l3.5-3.5c2.2,1.4,4.5,2.5,7,3.5
							l-0.8,5.1l4.6,1.4l2.3-4.5c2.5,0.6,5,1,7.6,1.2l0.8,5.1h4.9l0.8-5.1c2.6-0.2,5.1-0.6,7.6-1.2l2.3,4.6l4.6-1.4l-0.8-5.2
							c2.4-1,4.7-2.2,6.9-3.5l3.6,3.7l4-2.7l-2.4-4.7c2-1.7,3.8-3.5,5.5-5.5l4.6,2.4l2.9-3.8l-3.7-3.7c1.4-2.2,2.6-4.5,3.6-6.9
							l5.1,0.8l1.5-4.5l-4.7-2.4c0.6-2.5,1-5.1,1.2-7.7L974,549.4z"/>
					</g>
				</g>
			</g>
		</g>
	</g>
	<circle class="st13" cx="924" cy="547" r="35"/>
</g>
</svg>
