<?xml version="1.0" encoding="utf-8"?>
<!-- Generator: Adobe Illustrator 24.0.2, SVG Export Plug-In . SVG Version: 6.00 Build 0)  -->
<svg version="1.1" id="Livello_1" xmlns="http://www.w3.org/2000/svg" xmlns:xlink="http://www.w3.org/1999/xlink" x="0px" y="0px"
	 viewBox="0 0 87 54" style="enable-background:new 0 0 87 54;" xml:space="preserve">
<g>
	<g>
		<path d="M7.1,2h17.6c9.6,0,14.8,5.1,14.8,12.4c0,6-3.6,9.9-7.8,11c3.6,1,9.6,4.5,9.6,12.5c0,10.1-7.6,14.5-16.3,14.5H7.1V2z
			 M23.3,23.6c8.7,0,12-3.2,12-9.1c0-5-3.5-9-10.5-9h-14v18.1H23.3z M10.9,48.8h14.2c6.6,0,12.2-3.3,12.2-10.7
			c0-6.4-4.1-10.8-14.3-10.8H10.9V48.8z"/>
		<path d="M63.4,52.4V33.4c0-0.4-0.1-0.9-0.3-1.2L45.1,2h4.5c5,8.6,13.8,23.5,16,27.2C67.7,25.4,76.6,10.7,82,2h4.3L67.5,32.6
			c-0.1,0.3-0.2,0.6-0.2,1.1v18.7H63.4z"/>
	</g>
</g>
</svg>
