<?xml version="1.0" encoding="utf-8"?>
<!-- Generator: Adobe Illustrator 24.0.2, SVG Export Plug-In . SVG Version: 6.00 Build 0)  -->
<svg version="1.1" id="Livello_1" xmlns="http://www.w3.org/2000/svg" xmlns:xlink="http://www.w3.org/1999/xlink" x="0px" y="0px"
	 viewBox="0 0 1302 141" style="enable-background:new 0 0 1302 141;" xml:space="preserve">
<style type="text/css">
	.st0{fill:#FFFFFF;}
</style>
<g>
	<g>
		<path class="st0" d="M14,32.3h35c27.5,0,43.6,17.9,43.6,41.2c0,27.3-19.2,44-43.8,44H14V32.3z M26.1,107.5h20.3
			c22.6,0,33.5-14.1,33.5-33.7c0-19.7-12.7-31.6-32.5-31.7H26.1V107.5z"/>
		<path class="st0" d="M123.4,32.3v85.3h-12V32.3H123.4z"/>
		<path class="st0" d="M226.8,117.5h-9.2c-0.4-2.1-0.9-8.8-1-12.6c-5.7,9.2-14.4,14.4-31.1,14.4c-26.9,0-43.4-17.7-43.4-44.2
			c0-25.1,17.1-44.7,45.5-44.7c25.5,0,36.4,13,39.6,25.6h-12.4c-3.3-8-10.7-15.7-27.3-15.7c-21.3,0-32.6,15-32.6,34.1
			c0,20.1,11.4,34.9,32.3,34.9c17.8,0,27.9-9,27.9-25.8V81h-27.6V70.9h39.3V117.5z"/>
		<path class="st0" d="M260.5,32.3v85.3h-12V32.3H260.5z"/>
		<path class="st0" d="M306.3,42.5h-32.5V32.3h77.1v10.2h-32.5v75h-12.1V42.5z"/>
		<path class="st0" d="M377,91.7l-11,25.8h-12.6l36.7-85.3h14.6l38.1,85.3h-13.1l-11.5-25.8H377z M414.3,81.4
			C403.9,57.9,399,46.7,397,41h-0.1c-1.8,5.6-7.6,20.2-16.2,40.5H414.3z"/>
		<path class="st0" d="M456.2,32.3h12v75h51.4l-1.8,10.3h-61.6V32.3z"/>
		<path class="st0" d="M667.6,77.8h-51.1v29.5h56.4l-1.6,10.2h-66.8V32.3h65.9v10.2h-53.8v25.2h51.1V77.8z"/>
		<path class="st0" d="M770.8,80.8c0-15.9,0-31.3,0.5-40.1h-0.1c-4.2,12.9-19,47.5-31.2,76.8h-10.5c-9.2-23.9-25.4-63.3-30-76.8
			h-0.1c0.8,9.8,1.2,27.8,1.2,42.2v34.6h-11.2V32.3h17.3c11.7,27.9,26.2,62.8,28.7,70.7h0.1c4.1-10.6,18.7-44.6,29.5-70.7h17.5v85.3
			h-11.8V80.8z"/>
		<path class="st0" d="M890.9,74.6c0,24.1-16.3,44.7-44.9,44.7c-27.5,0-44.6-19.7-44.6-44.7c0-23.6,17.6-44.1,45-44.1
			C873.6,30.5,890.9,51,890.9,74.6z M814.2,74.3c0,18.3,11.2,34.9,32.3,34.9c20.8,0,31.7-15.8,31.7-34.3c0-17.7-11.1-34.3-32.5-34.3
			C825.8,40.6,814.2,56.3,814.2,74.3z"/>
		<path class="st0" d="M931.3,42.5h-32.5V32.3h77.1v10.2h-32.5v75h-12.1V42.5z"/>
		<path class="st0" d="M1001.2,32.3v85.3h-12V32.3H1001.2z"/>
		<path class="st0" d="M1109.4,74.6c0,24.1-16.3,44.7-44.9,44.7c-27.5,0-44.6-19.7-44.6-44.7c0-23.6,17.6-44.1,45-44.1
			C1092.1,30.5,1109.4,51,1109.4,74.6z M1032.7,74.3c0,18.3,11.2,34.9,32.3,34.9c20.8,0,31.7-15.8,31.7-34.3
			c0-17.7-11.1-34.3-32.5-34.3C1044.3,40.6,1032.7,56.3,1032.7,74.3z"/>
		<path class="st0" d="M1128.2,117.5V32.3h14.4c19.2,26.7,46.6,61.7,51.4,70.5h0.2c-0.8-11.1-0.6-24.6-0.6-38.4V32.3h11.3v85.3
			h-13.6c-12.7-17-46.1-63-52.2-72.9h-0.2c0.6,11,0.6,23.1,0.6,38.1v34.8H1128.2z"/>
		<path class="st0" d="M1234.4,92.7c3.1,10,10.4,17,27.2,17c16.8,0,23.2-6.5,23.2-14.4c0-8.4-4.7-13.5-26.7-17.2
			c-25.6-4.3-31.8-12.4-31.8-24c0-15,14.2-23.6,32.8-23.6c27.7,0,34.3,14.5,35.2,23.1h-12.2c-1.7-5.8-5.3-13.5-23.3-13.5
			c-12.3,0-20.2,4.2-20.2,12.7c0,7,3.5,11.4,22.8,14.6c30.8,5.2,35.7,14.8,35.7,26.6c0,13.6-10.8,25.2-36.5,25.2
			c-23.8,0-35.9-10.9-38.6-26.5H1234.4z"/>
	</g>
</g>
</svg>
