<?xml version="1.0" encoding="utf-8"?>
<!-- Generator: Adobe Illustrator 24.0.2, SVG Export Plug-In . SVG Version: 6.00 Build 0)  -->
<?xml-stylesheet type="text/css" href="../css/styles.css" ?>
<svg version="1.1" id="Livello_1" xmlns="http://www.w3.org/2000/svg" xmlns:xlink="http://www.w3.org/1999/xlink" x="0px" y="0px"
	 viewBox="0 0 467 312" style="enable-background:new 0 0 467 312;" xml:space="preserve">
<!-- <style type="text/css">
	.st0{fill:none;stroke:#FFFFFF;stroke-width:2;stroke-linecap:round;stroke-linejoin:round;stroke-miterlimit:10;}
</style> -->
<path class="firma" id="letter-n" d="M39.5,304.5c16.6-64.7,25.2-117.9,30-155c0,0,2.7-21,14-139l0,0l-25,292c12.9-47.4,24.8-100.2,34-158
	c7.4-46.1,12.1-89.6,15-130"/>
<path class="firma" id="letter-ic" d="M61.5,301.5c4.3,0.1,7.3-1,9-2c8.1-4.5,11.8-16.6,9-30c0,5.9,0.9,15.6,6,26c2.6,5.3,4.4,9,7,9
	c6.4,0.1,6.6-22.7,23-33c3.8-2.4,7.5-3.5,10-4c-1.9,0.2-11.2,1.6-18,10c-6.5,8-6.1,17-6,19c0.6,1.5,2.5,5.6,7,8
	c8.1,4.4,16.6-0.8,17-1"/>
<path class="firma" id="letter-v" d="M123.5,18.5c9.3,51.7,17.3,107.4,23,167c4.1,42.5,6.6,83.2,8,122c1.6-202.7,11-304.7,28-306
	c3.6-0.3,7.6,4.1,12,13"/>
<path class="firma" id="letters-annetti" d="M170.5,268.5c-1,1.5-6.9,10.4-4,21c2,7.3,8.5,16.6,16,16c8.4-0.7,12.4-13.2,13-15c4.4-13.7-1.3-30.4-7-31
	c-4.6-0.4-9.7,9.3-11,17c-0.6,3.2-2.1,12.2,4,19c5.3,5.9,14.9,8.5,21,5c1.9-1.1,4.8-3.5,8-20c2-10.4,2.7-19.4,3-26
	c-1.3,9.3-3.9,31.9,0,42c0.6,1.4,1.8,4.8,4,5c2.6,0.3,5-4.1,6-6c5.7-10.6,8.7-31,10-42c-4.5,19.9-2.8,32.8-1,40c2,8.1,4.1,8.9,5,9
	c3.3,0.4,6.6-6.9,8-10c3.3-7.2,7.3-19.7,6-39c-1.5,7.7-2.7,18.9-1,32c0.8,6.1,2.2,17.5,6,18c4.9,0.6,10.6-17.6,11-19
	c3.8-12.4,3.7-23.4,3-31c-0.9,7.1-1.6,17.2,0,29c1.4,10.8,2.7,20.4,8,22c6.5,2,15.6-9.4,19-15c3.6-5.8,4.6-10.9,5-13
	c1.3-7.7,0.4-18.2-3-19c-3.2-0.7-7.9,7.1-10,13c-0.7,2.1-4.9,13.8,1,23c4.5,7,13.5,10.4,17,10c28.3-3.4,18.1-247,18-247
	c-0.1,0,5.3,248,9,248c2.1,0,4.1-75.4,5-108c1.6-58.2,2-106.7,2-141c-5.1,162.6-3.4,244.3,5,245c3.7,0.3,8.7-15,15-46
	c-2.7,15.8,0.4,26.8,3,33c0.7,1.8,5.8,13.7,10,13c3.8-0.7,4.9-11.5,5-13"/>
<path class="firma" id="linea-orizzontale" d="M397.5,93.5c-325.2,7.6-395,7.6-395,6c-0.1-1.8,89.7-11.2,201-6c145.4,6.8,260.6,35.4,262,29
	c0.4-1.6-6.7-5.5-38-15"/>
</svg>
