<svg id="forme" xmlns="http://www.w3.org/2000/svg" viewBox="0 0 263 263">
<?xml-stylesheet type="text/css" href="svg.css" ?>
<defs>
<style>.cls-1,.cls-2,.cls-3,.cls-4{fill:none;stroke:aqua;}
.cls-1,.cls-2,.cls-3,.cls-5{stroke-linecap:round;}
.cls-1,.cls-2,.cls-3,.cls-4,.cls-5{stroke-miterlimit:10;}
.cls-2,.cls-5{stroke-width:3px;}.cls-2{stroke-dasharray:83.15 15.59;}
.cls-3{stroke-width:4px;stroke-dasharray:50 15;}.cls-4{stroke-width:2px;}
.cls-5{fill:#fff;stroke:#0071bc;}</style>
</defs><title>key</title>
<circle class="cls-1" cx="131.5" cy="131.5" r="131"/>
<circle class="cls-2" cx="131.5" cy="131.5" r="110"/>
<circle class="cls-3" cx="131.5" cy="131.5" r="75"/>
<path class="cls-4" d="M184,135.35v-4.7l-5.08-.79a45.25,45.25,0,0,0-1.2-7.77l4.6-2.32-1.54-4.46-5,.81a46.87,46.87,0,0,0-3.55-7l3.62-3.6-2.9-3.76-4.4,2.26a45.71,45.71,0,0,0-5.54-5.59l2.31-4.49-4-2.72L158,94.65A45.42,45.42,0,0,0,151,91l.8-4.88-4.63-1.41L145,89.05a45.42,45.42,0,0,0-7.78-1.26L136.43,83h-4.86l-.73,4.78A44.71,44.71,0,0,0,123,89l-2.15-4.24-4.63,1.41.78,4.76a44.31,44.31,0,0,0-7.1,3.62l-3.31-3.35-4,2.72,2.22,4.3a46,46,0,0,0-5.67,5.67L95,101.72l-2.9,3.76,3.43,3.41a45.69,45.69,0,0,0-3.65,7.18l-4.67-.76-1.54,4.46L90,122a44.46,44.46,0,0,0-1.23,8l-4.77.74v4.7l4.79.74A44.17,44.17,0,0,0,90.07,144l-4.39,2.21,1.54,4.46,4.79-.78A45.52,45.52,0,0,0,95.66,157l-3.55,3.53,2.9,3.76L99.38,162a45.71,45.71,0,0,0,5.59,5.54l-2.33,4.52,4,2.72,3.5-3.54a44.81,44.81,0,0,0,7,3.51l-.82,5.06,4.63,1.41,2.29-4.52a44.59,44.59,0,0,0,7.63,1.17l.78,5.09h4.86l.79-5.11a44.17,44.17,0,0,0,7.59-1.22l2.32,4.59,4.63-1.41-.84-5.18a44.22,44.22,0,0,0,6.85-3.51l3.62,3.66,4-2.72-2.42-4.7a47.1,47.1,0,0,0,5.47-5.47l4.58,2.35,2.9-3.76-3.74-3.72a45.8,45.8,0,0,0,3.55-6.94l5.08.83,1.54-4.46-4.66-2.35a47,47,0,0,0,1.24-7.74Z" transform="translate(-2.5 -1.5)"/>
<circle class="cls-5" cx="131.5" cy="131.5" r="35"/>

</svg>